<svg width="199" height="28" viewBox="0 0 199 28" fill="none" xmlns="http://www.w3.org/2000/svg">
<path d="M26.9491 25.866V27.5H0.121094V25.866H3.80709V0.937998H14.1431C15.9418 0.937998 17.4871 1.15333 18.7791 1.584C20.0964 2.01467 21.0718 2.59733 21.7051 3.332C22.9211 4.7 23.5291 6.24533 23.5291 7.968C23.5291 10.0453 22.8704 11.5907 21.5531 12.604C21.0718 12.9587 20.7424 13.1867 20.5651 13.288C20.3878 13.364 20.0711 13.5033 19.6151 13.706C21.2618 14.0607 22.5664 14.808 23.5291 15.948C24.5171 17.0627 25.0111 18.456 25.0111 20.128C25.0111 22.636 24.0231 24.5487 22.0471 25.866H26.9491ZM8.29109 23.358H15.3211C16.9678 23.358 18.2218 23.1047 19.0831 22.598C19.9698 22.066 20.4131 21.078 20.4131 19.634C20.4131 17.278 18.5258 16.1 14.7511 16.1H8.29109V23.358ZM8.29109 11.958H13.9911C17.2338 11.958 18.8551 10.856 18.8551 8.652C18.8551 7.38533 18.4624 6.47333 17.6771 5.916C16.8918 5.35867 15.6758 5.08 14.0291 5.08H8.29109V11.958ZM55.5652 25.866V27.5H47.3572L41.0112 18.57H35.1212V27.5H26.9512V25.866H30.6372V0.937998H40.5172C44.5705 0.937998 47.4712 1.622 49.2192 2.99C50.9672 4.358 51.8412 6.54933 51.8412 9.564C51.8412 13.9467 49.9285 16.708 46.1032 17.848L51.8792 25.866H55.5652ZM40.7072 14.504C43.2405 14.504 44.9632 14.1113 45.8752 13.326C46.7872 12.5407 47.2432 11.2867 47.2432 9.564C47.2432 7.816 46.7745 6.62533 45.8372 5.992C44.8998 5.33333 43.2278 5.004 40.8212 5.004H35.1212V14.504H40.7072ZM86.4797 25.866V27.5H78.0057L75.3457 21.458H62.0457L59.3857 27.5H50.9117V25.866H55.3197L66.3017 0.937998H71.0897L82.0717 25.866H86.4797ZM73.5217 17.316L68.6957 6.372L63.8697 17.316H73.5217ZM86.4868 25.866V0.937998H90.9708L106.399 20.774V0.937998H110.883V25.866H114.569V27.5H106.019L90.9708 8.12V27.5H82.8008V25.866H86.4868ZM144.282 25.866V27.5H114.566V25.866H118.252V0.937998H127.372C132.135 0.937998 135.796 2.10333 138.354 4.434C140.913 6.73933 142.192 9.99467 142.192 14.2C142.192 19.8493 139.963 23.738 135.504 25.866H144.282ZM137.67 14.2C137.67 8.12 134.187 5.08 127.22 5.08H122.736V23.282H127.714C130.932 23.282 133.389 22.522 135.086 21.002C136.809 19.4567 137.67 17.1893 137.67 14.2Z" fill="#292524"/>
<path d="M147.977 25.866V0.937998H166.635V5.156H152.461V12.186H165.191V16.176H152.461V23.282H167.091V25.866H170.777V27.5H144.291V25.866H147.977ZM198.87 25.866V27.5H169.154V25.866H172.84V0.937998H181.96C186.723 0.937998 190.384 2.10333 192.942 4.434C195.501 6.73933 196.78 9.99467 196.78 14.2C196.78 19.8493 194.551 23.738 190.092 25.866H198.87ZM192.258 14.2C192.258 8.12 188.775 5.08 181.808 5.08H177.324V23.282H182.302C185.52 23.282 187.977 22.522 189.674 21.002C191.397 19.4567 192.258 17.1893 192.258 14.2Z" fill="#CD835C"/>
</svg>
